<svg xmlns="http://www.w3.org/2000/svg" viewBox="0 0 480 594" width="480" height="594" role="img"><defs><marker id="s2m-triangle" markerWidth="14" markerHeight="14" refX="13" refY="7" orient="auto"><path d="M0,0 L14,7 L0,14 z" fill="#ffffff" stroke="#333333" stroke-width="1.5"/></marker><marker id="s2m-diamond" markerWidth="16" markerHeight="14" refX="0" refY="7" orient="auto"><path d="M0,7 L7,0 L16,7 L7,14 z" fill="#333333" stroke="#333333"/></marker><marker id="s2m-arrow" markerWidth="10" markerHeight="10" refX="9" refY="5" orient="auto"><path d="M0,0 L10,5 L0,10" fill="none" stroke="#333333" stroke-width="1.5"/></marker></defs><path d="M290.10752688172045,302 L260,337 L210,372" fill="none" stroke="#333333" stroke-width="1.5" marker-start="url(#s2m-diamond)" /><path d="M277.63440860215053,302 L240,337 L201.11111111111111,372" fill="none" stroke="#333333" stroke-width="1.5" marker-start="url(#s2m-diamond)" /><text x="240" y="333" text-anchor="middle" font-size="11" font-family="sans-serif" fill="#1a1a1a">[2]</text><path d="M346.23655913978496,302 L350,337 L350,382" fill="none" stroke="#333333" stroke-width="1.5"  marker-end="url(#s2m-arrow)"/><path d="M243.0120481927711,96 L190,151 L190,244 L190,337 L178.88888888888889,372" fill="none" stroke="#333333" stroke-width="1.5" marker-start="url(#s2m-diamond)" /><path d="M170,428 L170,463 L170,498" fill="none" stroke="#333333" stroke-width="1.5"  marker-end="url(#s2m-triangle)"/><path d="M296.9879518072289,96 L350,151 L346.23655913978496,186" fill="none" stroke="#333333" stroke-width="1.5"  marker-end="url(#s2m-triangle)"/><path d="M263.2530120481928,96 L250,151 L283.8709677419355,186" fill="none" stroke="#333333" stroke-width="1.5" stroke-dasharray="6 4"  marker-end="url(#s2m-arrow)"/><text x="250" y="147" text-anchor="middle" font-size="11" font-family="sans-serif" fill="#1a1a1a">redefines engine</text><path d="M229.51807228915663,96 L150,151 L150,244 L150,337 L161.11111111111111,372" fill="none" stroke="#333333" stroke-width="1.5" stroke-dasharray="6 4"  marker-end="url(#s2m-arrow)"/><rect x="20" y="20" width="140" height="96" rx="4" fill="#ffffff" stroke="#333333" stroke-width="1.5"/><rect x="20" y="20" width="140" height="26" rx="4" fill="#eef2f7" stroke="#333333" stroke-width="1.5"/><text x="90" y="37" text-anchor="middle" font-size="12" font-family="sans-serif" fill="#1a1a1a">«enumeration» Color</text><text x="28" y="62" font-size="11" font-family="sans-serif" fill="#1a1a1a">red</text><text x="28" y="82" font-size="11" font-family="sans-serif" fill="#1a1a1a">green</text><text x="28" y="102" font-size="11" font-family="sans-serif" fill="#1a1a1a">blue</text><rect x="100" y="498" width="140" height="36" rx="4" fill="#ffffff" stroke="#333333" stroke-width="1.5"/><rect x="100" y="498" width="140" height="26" rx="4" fill="#eef2f7" stroke="#333333" stroke-width="1.5"/><text x="170" y="515" text-anchor="middle" font-size="12" font-family="sans-serif" fill="#1a1a1a">«block» PowerSource</text><rect x="100" y="372" width="140" height="56" rx="4" fill="#ffffff" stroke="#333333" stroke-width="1.5"/><rect x="100" y="372" width="140" height="26" rx="4" fill="#eef2f7" stroke="#333333" stroke-width="1.5"/><text x="170" y="389" text-anchor="middle" font-size="12" font-family="sans-serif" fill="#1a1a1a">«block» Engine</text><text x="108" y="414" font-size="11" font-family="sans-serif" fill="#1a1a1a">power : Real</text><rect x="270" y="186" width="140" height="116" rx="4" fill="#ffffff" stroke="#333333" stroke-width="1.5"/><rect x="270" y="186" width="140" height="26" rx="4" fill="#eef2f7" stroke="#333333" stroke-width="1.5"/><text x="340" y="203" text-anchor="middle" font-size="12" font-family="sans-serif" fill="#1a1a1a">«block» Vehicle</text><text x="278" y="228" font-size="11" font-family="sans-serif" fill="#1a1a1a">mass : Real</text><text x="278" y="248" font-size="11" font-family="sans-serif" fill="#1a1a1a">engine : Engine</text><text x="278" y="268" font-size="11" font-family="sans-serif" fill="#1a1a1a">spare : Engine[2]</text><text x="278" y="288" font-size="11" font-family="sans-serif" fill="#1a1a1a">operator : Person</text><rect x="200" y="40" width="140" height="56" rx="4" fill="#ffffff" stroke="#333333" stroke-width="1.5"/><rect x="200" y="40" width="140" height="26" rx="4" fill="#eef2f7" stroke="#333333" stroke-width="1.5"/><text x="270" y="57" text-anchor="middle" font-size="12" font-family="sans-serif" fill="#1a1a1a">«block» Car</text><text x="208" y="82" font-size="11" font-family="sans-serif" fill="#1a1a1a">engine : Engine</text><rect x="280" y="382" width="140" height="36" rx="4" fill="#ffffff" stroke="#c0392b" stroke-width="1.5"/><rect x="280" y="382" width="140" height="26" rx="4" fill="#eef2f7" stroke="#c0392b" stroke-width="1.5"/><text x="350" y="399" text-anchor="middle" font-size="12" font-family="sans-serif" fill="#1a1a1a">«unresolved» Person</text></svg>